<!-- Generator: Adobe Illustrator 19.0.0, SVG Export Plug-In  -->
<svg version="1.1"
	 xmlns="http://www.w3.org/2000/svg" xmlns:xlink="http://www.w3.org/1999/xlink" xmlns:a="http://ns.adobe.com/AdobeSVGViewerExtensions/3.0/"
	 x="0px" y="0px" width="600px" height="600px" viewBox="0 0 600 600" enable-background="new 0 0 600 600" xml:space="preserve">
<defs>
</defs>
<g>
	<path fill="#FFFFFF" d="M79.7,352.5H65.1v31.8h14.5c9,0,16-7,16-15.8C95.7,359.7,88.5,352.5,79.7,352.5z"/>
	<path fill="#FFFFFF" d="M90.2,241.7c0-4.7-4.1-8.9-8.9-8.9H65.1v17.8h16.2C86.2,250.6,90.2,246.6,90.2,241.7z"/>
	<path fill="#FFFFFF" d="M87.9,192.9c0-4.9-4-8.9-8.9-8.9H65.1v17.8H79C83.9,201.7,87.9,197.8,87.9,192.9z"/>
	<path fill="#FFFFFF" d="M0,0v600h600V0H0z M28.7,155.1c0-1,0.8-1.9,1.9-1.9h54.8c20.9,0,38.6,17.8,38.6,38.8
		c0,7.7-2.6,15.5-7.3,22.1c8.4,7.4,13.4,18,13.4,28.8c0,20.8-17.5,38.3-38.3,38.3H30.6c-1,0-1.9-0.8-1.9-1.9V155.1z M134.3,446.5
		c-0.3,0.5-0.9,0.8-1.6,0.8H95.1c-0.8,0-1.5-0.5-1.8-1.3l-11.2-31.7h-17v31.1c0,1-0.8,1.9-1.9,1.9H30.6c-1,0-1.9-0.8-1.9-1.9V321.3
		c0-1,0.8-1.9,1.9-1.9h52.3c26.2,0,47.6,21.3,47.6,47.6c0,12.7-5.2,25-14.4,33.9l18.3,43.8C134.7,445.3,134.6,446,134.3,446.5z
		 M143.5,234l-0.3-0.6c-0.3-0.6-0.5-1.1-0.7-1.7l-0.8-2.3c-0.2-0.6-0.4-1.3-0.6-2.1l-0.5-2c0-0.1,0-0.1,0-0.2
		c-0.1-0.6-0.2-1.2-0.3-1.8l-0.4-2.7c0-0.3,0-0.5-0.1-0.6l-0.1-1.6c0,0,0-0.2,0-0.2l0-0.9c0.1-4.2,0.7-8,2.1-12.2l0.9-2.4
		c0.2-0.6,0.5-1.2,0.7-1.7l0.3-0.6c0.7-1.5,1.4-2.8,2.1-4.1c0,0,0.1-0.2,0.1-0.2c2.5-4.5,5.6-8.6,9.6-13.1c2.9-3.3,6.1-6.5,9.9-9.8
		c3-2.6,6.1-5.1,9.4-7.6c5-3.6,10.1-6.9,15.2-9.6c1.5-0.8,3.1-1.6,4.6-2.3l1.7-0.7c1.6-0.7,3.4-0.2,4.5,1.1l7.1,9.1
		c1,1.3,1.1,3.2,0.1,4.5l-0.9,1.3c-0.7,0.9-1.6,2.2-2.9,3.8c-1.8,2.3-4.2,5.4-7,9l-3,3.9c-2,2.6-4.2,5.4-6.4,8.3
		c-2.4,3.2-4.6,6.2-6.5,9.1c-1.7,2.6-3.8,5.9-5.3,9c-0.6,1.3-1.1,2.6-1.5,3.7c-0.2,0.6-0.2,1.1-0.3,1.4l0,0.4c0,0.1,0.1,0.2,0.1,0.4
		l0,0c0,0.2,0.1,0.4,0.1,0.6c0.4,1.2,0.9,2.5,1.5,3.8c1.5,3.1,3.6,6.4,5.3,9c1.9,2.8,4.1,5.9,6.5,9c2.2,2.9,4.4,5.7,6.4,8.3l3,3.9
		c2.8,3.6,5.2,6.6,7,9c1.2,1.6,2.2,2.9,2.8,3.8l1,1.4c0.9,1.4,0.9,3.2-0.1,4.5l-7,9.1c-0.7,0.9-1.8,1.5-3,1.5c-0.5,0-1-0.1-1.5-0.3
		l-1.6-0.7c-1.6-0.7-3.1-1.5-4.6-2.3c-5.1-2.7-10.2-5.9-15.1-9.6c-3.4-2.5-6.4-4.9-9.4-7.6c-3.8-3.3-7-6.6-9.9-9.8
		c-4-4.5-7-8.7-9.5-13.1C144.8,236.8,144.1,235.5,143.5,234z M282.3,446.4c-0.3,0.5-0.9,0.9-1.6,0.9h-32.6c-0.7,0-1.4-0.4-1.7-1.1
		l-7.1-15.1h-48.4l-6.9,15.1c-0.3,0.7-1,1.1-1.7,1.1h-32.6c-0.6,0-1.2-0.3-1.6-0.9c-0.3-0.5-0.4-1.2-0.1-1.8l57.9-124.2
		c0.3-0.7,1-1.1,1.7-1.1h14.7c0.7,0,1.4,0.4,1.7,1.1l58.4,124.2C282.7,445.2,282.7,445.9,282.3,446.4z M294.3,251.3
		c-4-4.5-7-8.7-9.5-13.1c-0.8-1.4-1.5-2.7-2.2-4.2l-0.2-0.5l-0.2,0.5c-0.7,1.5-1.4,2.8-2.2,4.2c-2.5,4.5-5.6,8.6-9.5,13.1
		c-2.9,3.3-6.1,6.5-9.9,9.8c-3,2.6-6.1,5.1-9.4,7.6c-5,3.6-10.1,6.9-15.1,9.6c-1.5,0.8-3.1,1.6-4.6,2.3l-1.6,0.7
		c-0.5,0.2-1,0.3-1.5,0.3c-1.1,0-2.2-0.5-3-1.5l-7-9.1c-1-1.3-1.1-3.1-0.1-4.5l1-1.4c0.6-0.9,1.6-2.2,2.8-3.8c1.8-2.4,4.2-5.4,7-9
		l3-3.9c2-2.6,4.2-5.4,6.4-8.3c2.4-3.2,4.6-6.2,6.5-9c1.7-2.6,3.9-6,5.3-9c0.6-1.3,1.1-2.6,1.5-3.8c0-0.2,0.1-0.4,0.1-0.6l0,0
		c0-0.1,0-0.2,0.1-0.4l0-0.4c0-0.3-0.1-0.8-0.3-1.4c-0.3-1.1-0.9-2.4-1.5-3.7c-1.5-3.1-3.6-6.4-5.3-9c-1.9-2.9-4.1-5.9-6.5-9.1
		c-2.2-2.9-4.4-5.7-6.4-8.3l-3-3.9c-2.8-3.6-5.2-6.6-7-9c-1.2-1.6-2.2-2.9-2.9-3.8l-0.9-1.3c-1-1.4-0.9-3.2,0.1-4.5l7.1-9.1
		c1.1-1.4,2.9-1.8,4.5-1.1l1.7,0.7c1.5,0.7,3,1.5,4.6,2.3c5.1,2.7,10.2,5.9,15.2,9.6c3.4,2.5,6.4,4.9,9.4,7.6c3.8,3.3,7,6.5,9.9,9.8
		c4,4.5,7,8.7,9.6,13.1c0,0,0.1,0.2,0.1,0.2c0.7,1.3,1.4,2.6,2.1,4.1l0.2,0.5l0.2-0.5c0.7-1.5,1.4-2.8,2.1-4.1c0,0,0.1-0.2,0.1-0.2
		c2.5-4.5,5.6-8.6,9.6-13.1c2.9-3.3,6.1-6.5,9.9-9.8c3-2.6,6.1-5.1,9.4-7.6c5-3.6,10.1-6.9,15.2-9.6c1.5-0.8,3.1-1.6,4.6-2.3
		l1.7-0.7c1.6-0.7,3.4-0.2,4.5,1.1l7.1,9.1c1,1.3,1.1,3.2,0.1,4.5l-0.9,1.3c-0.7,0.9-1.6,2.2-2.9,3.8c-1.8,2.3-4.2,5.4-7,9l-3,3.9
		c-2,2.6-4.2,5.4-6.4,8.3c-2.4,3.2-4.6,6.2-6.5,9.1c-1.7,2.6-3.8,5.9-5.3,9c-0.6,1.3-1.1,2.6-1.5,3.7c-0.2,0.6-0.3,1.1-0.3,1.4
		l0,0.4c0,0.1,0.1,0.2,0.1,0.4l0,0c0,0.2,0.1,0.4,0.1,0.6c0.4,1.2,0.9,2.5,1.5,3.8c1.5,3.1,3.6,6.4,5.3,9c1.9,2.8,4.1,5.9,6.5,9
		c2.2,2.9,4.4,5.7,6.4,8.3l3,3.9c2.8,3.6,5.2,6.6,7,9c1.2,1.6,2.2,2.9,2.8,3.8l1,1.4c0.9,1.4,0.9,3.2-0.1,4.5l-7,9.1
		c-0.7,0.9-1.8,1.5-3,1.5c-0.5,0-1-0.1-1.5-0.3l-1.6-0.7c-1.6-0.7-3.1-1.5-4.6-2.3c-5.1-2.7-10.2-5.9-15.1-9.6
		c-3.4-2.5-6.4-4.9-9.4-7.6C300.4,257.8,297.2,254.6,294.3,251.3z M410.2,445.4c0,1-0.8,1.9-1.9,1.9h-13.4c-0.5,0-1-0.2-1.3-0.6
		l-55.4-55.5v54.2c0,1-0.8,1.9-1.9,1.9h-32.6c-1,0-1.9-0.8-1.9-1.9V321.3c0-1,0.8-1.9,1.9-1.9h13.2c0.5,0,1,0.2,1.3,0.5l55.6,55.4
		v-54.1c0-1,0.8-1.9,1.9-1.9h32.6c1,0,1.9,0.8,1.9,1.9V445.4z M425.2,218.2c0,0,0,0.2,0,0.2l-0.1,1.6c0,0.1,0,0.3-0.1,0.6l-0.4,2.7
		c-0.1,0.6-0.2,1.2-0.3,1.8c0,0.1,0,0.1,0,0.2l-0.5,2c-0.2,0.7-0.4,1.4-0.6,2.1l-0.8,2.3c-0.2,0.6-0.5,1.2-0.7,1.7l-0.3,0.6
		c-0.7,1.5-1.4,2.8-2.2,4.2c-2.5,4.5-5.6,8.6-9.5,13.1c-2.9,3.3-6.1,6.5-9.9,9.8c-3,2.6-6.1,5.1-9.4,7.6c-5,3.6-10.1,6.9-15.1,9.6
		c-1.5,0.8-3.1,1.6-4.6,2.3l-1.6,0.7c-0.5,0.2-1,0.3-1.5,0.3c-1.1,0-2.2-0.5-3-1.5l-7-9.1c-1-1.3-1.1-3.1-0.1-4.5l1-1.4
		c0.6-0.9,1.6-2.2,2.8-3.8c1.8-2.4,4.2-5.4,7-9l3-3.9c2-2.6,4.2-5.4,6.4-8.3c2.4-3.2,4.6-6.2,6.5-9c1.7-2.6,3.9-6,5.3-9
		c0.6-1.3,1.1-2.6,1.5-3.8c0-0.2,0.1-0.4,0.1-0.6l0,0c0-0.1,0-0.2,0.1-0.4l0-0.4c0-0.3-0.1-0.8-0.3-1.4c-0.3-1.1-0.9-2.4-1.5-3.7
		c-1.5-3.1-3.6-6.4-5.3-9c-1.9-2.9-4.1-5.9-6.5-9.1c-2.2-2.9-4.4-5.7-6.4-8.3l-3-3.9c-2.8-3.6-5.2-6.6-7-9c-1.2-1.6-2.2-2.9-2.9-3.8
		l-0.9-1.3c-1-1.4-0.9-3.2,0.1-4.5l7.1-9.1c1.1-1.4,2.9-1.8,4.5-1.1l1.7,0.7c1.5,0.7,3,1.5,4.6,2.3c5.1,2.7,10.2,5.9,15.2,9.6
		c3.4,2.5,6.4,4.9,9.4,7.6c3.8,3.3,7,6.5,9.9,9.8c4,4.5,7,8.7,9.6,13.1c0,0,0.1,0.2,0.1,0.2c0.7,1.3,1.4,2.6,2.1,4.1l0.3,0.6
		c0.3,0.6,0.5,1.1,0.7,1.7l0.9,2.4c1.4,4.2,2.1,8,2.1,12.2L425.2,218.2z M566.1,383.3c0,35.3-28.7,64-64,64
		c-35.2,0-63.8-28.7-63.8-64s28.6-64,63.8-64c16.9,0,32.9,6.6,45,18.6c0.4,0.4,0.6,0.8,0.6,1.3c0,0.5-0.2,1-0.6,1.3l-23,22.8
		c-0.7,0.7-1.9,0.7-2.6,0c-5.4-5.1-12.1-7.8-19.4-7.8c-15.1,0-27.4,12.4-27.4,27.6s12.3,27.6,27.4,27.6c7.7,0,15-3.2,20.1-8.5h-20.1
		c-1,0-1.9-0.8-1.9-1.9v-21.9c0-1,0.8-1.9,1.9-1.9h62.1c1,0,1.9,0.8,1.9,1.9V383.3z M571.3,279.3c0,1-0.8,1.9-1.9,1.9h-32.8
		c-1,0-1.9-0.8-1.9-1.9v-59.5l-29.3,26.8c-0.7,0.7-1.8,0.7-2.5,0l-29.5-26.6v59.3c0,1-0.8,1.9-1.9,1.9h-32.8c-1,0-1.9-0.8-1.9-1.9
		V155.1c0-1,0.8-1.9,1.9-1.9h14.7c0.5,0,0.9,0.2,1.3,0.5l49.4,44.9l49.2-44.9c0.3-0.3,0.8-0.5,1.3-0.5h14.7c1,0,1.9,0.8,1.9,1.9
		V279.3z"/>
	<polygon fill="#FFFFFF" points="205.2,401.7 224.9,401.7 215.1,377.5 	"/>
</g>
</svg>
