<!-- Generator: Adobe Illustrator 19.0.0, SVG Export Plug-In  -->
<svg version="1.1"
	 xmlns="http://www.w3.org/2000/svg" xmlns:xlink="http://www.w3.org/1999/xlink" xmlns:a="http://ns.adobe.com/AdobeSVGViewerExtensions/3.0/"
	 x="0px" y="0px" width="823.5px" height="447.3px" viewBox="0 0 823.5 447.3" enable-background="new 0 0 823.5 447.3"
	 xml:space="preserve">
<defs>
</defs>
<g>
	<g>
		<path fill="none" d="M102.2,340c2.2-3.6,3.4-7.8,3.4-12.4c0-13.4-10.9-24.3-24.3-24.3H59.2v25.6v22.7h22.1
			C90.3,351.6,98,347,102.2,340z"/>
		<path fill="#FF3E54" d="M133.5,402.1c-5.4-4.2-11.1-8.7-17.2-13.2c-6.5-4.9-12.8-9.4-18.7-13.4c-5.3-3.5-12.3-7.9-18.6-10.9
			c-2.7-1.3-5.4-2.4-7.6-3.1c-1.2-0.3-2.2-0.5-2.8-0.6h-0.8c-0.2,0.1-0.5,0.1-0.7,0.2H67c-0.3,0.1-0.8,0.2-1.2,0.3
			c-2.5,0.8-5.2,1.9-7.9,3.1c-6.3,3-13.3,7.5-18.7,11c-5.8,3.9-12.1,8.4-18.7,13.4c-5.8,4.3-11.3,8.6-16.4,12.6v42.9
			c0,1.6,1.3,2.9,2.9,2.9h49.5c1.6,0,2.9-1.3,2.9-2.9v-47.1h25.8l17,48.1c0.4,1.1,1.5,1.9,2.7,1.9h57c1,0,1.8-0.5,2.4-1.3
			c0.5-0.8,0.6-1.8,0.3-2.7l-10.5-25.1c-3.7-2.9-7.9-6.1-12.5-9.7L133.5,402.1z"/>
		<path fill="#F2E800" d="M33.7,298.2l1.2-0.6c1.2-0.5,2.3-1.1,3.6-1.5l4.7-1.7c1.3-0.5,2.8-0.9,4.2-1.3l4.1-1.1
			c0.1,0,0.3-0.1,0.4-0.1c1.2-0.3,2.5-0.5,3.7-0.7l5.6-0.8c0.7-0.1,1-0.1,1.3-0.1l3.3-0.2c0.1,0,0.4,0,0.5,0l1.9-0.1
			c8.6,0.1,16.5,1.5,25.2,4.4l4.9,1.8c1.3,0.5,2.4,1,3.6,1.5l1.2,0.6c3.1,1.4,5.8,2.9,8.4,4.3l0.3,0.2c9.2,5.2,17.8,11.5,27.1,19.7
			c6,5.3,11.9,11.1,18,17.8c1.1-4.9,1.6-9.9,1.6-15c0-39.8-32.4-72.2-72.2-72.2H6.9c-1.6,0-2.9,1.3-2.9,2.9v61.2
			c7-5.7,13.8-10.4,20.9-14.4C27.9,301.1,30.6,299.6,33.7,298.2z"/>
		<path fill="#8C7BFA" d="M142.4,370.4c4.6-5.7,8.3-12.1,11-18.8c1.5-3.7,2.6-7.5,3.5-11.4c-6.1-6.7-12-12.5-18-17.8
			c-9.3-8.2-17.9-14.5-27.1-19.7l-0.3-0.2c-2.6-1.4-5.3-2.9-8.4-4.3l-1.2-0.6c-1.2-0.5-2.3-1.1-3.6-1.5l-4.9-1.8
			c-8.7-2.9-16.6-4.3-25.2-4.4l-1.9,0.1c-0.1,0-0.4,0-0.5,0l-3.3,0.2c-0.3,0-0.6,0-1.3,0.1l-5.6,0.8c-1.2,0.2-2.5,0.4-3.7,0.7
			c-0.1,0-0.3,0.1-0.4,0.1l-4.1,1.1c-1.5,0.4-2.9,0.8-4.2,1.3l-4.7,1.7c-1.3,0.5-2.4,1-3.6,1.5l-1.2,0.6c-3.1,1.4-5.9,2.9-8.8,4.5
			c-7.1,4-13.9,8.7-20.9,14.4v35.8v12v36.6c5.1-4,10.6-8.3,16.4-12.6c6.5-4.9,12.8-9.4,18.7-13.4c5.4-3.5,12.3-8,18.7-11
			c2.7-1.3,5.4-2.4,7.9-3.1c0.5-0.1,0.9-0.2,1.2-0.3H67c0.2,0,0.5-0.1,0.7-0.2h0.8c0.6,0.1,1.6,0.3,2.8,0.6c2.2,0.7,4.9,1.8,7.6,3.1
			c6.3,3,13.3,7.5,18.6,10.9c5.9,4,12.2,8.5,18.7,13.4c6.1,4.6,11.8,9,17.2,13.2l8,6.3c4.6,3.6,8.8,6.9,12.5,9.7l-17.3-41.4
			C138.7,374.7,140.6,372.6,142.4,370.4z M59.3,329v-25.6h22.1c13.4,0,24.3,10.9,24.3,24.3c0,4.6-1.2,8.8-3.4,12.4
			c-4.2,7-11.9,11.6-20.9,11.6H59.3V329z"/>
		<path fill="#FF3E54" d="M374.2,422.8c-4.9-3.7-11.2-8.7-18.6-14.4l-8-6.3c-5.4-4.2-11.1-8.7-17.2-13.2
			c-6.5-4.9-12.8-9.4-18.7-13.4c-4.2-2.7-9.3-6.1-14.4-8.8l4.6,11.4H272l6.7-16.2c-2.1,0.7-4.4,1.6-6.6,2.7c-6.3,3-13.3,7.5-18.7,11
			c-5.8,3.9-12.1,8.4-18.7,13.4c-6.1,4.6-11.9,9-17.2,13.2l-8,6.3c-4.8,3.8-9.2,7.2-13,10.1L185,443.2c-0.4,0.9-0.3,1.9,0.2,2.7
			s1.4,1.3,2.4,1.3h49.5c1.1,0,2.1-0.7,2.6-1.7l10.5-23h73.5l10.8,23c0.5,1,1.5,1.6,2.6,1.6h49.5c1,0,1.9-0.5,2.4-1.3
			s0.6-1.9,0.2-2.7l-6.7-14.2l-0.3-0.2C380.2,427.4,377.5,425.4,374.2,422.8z"/>
		<path fill="#F2E800" d="M261.5,293l4.1-1.1c0.1,0,0.3-0.1,0.4-0.1c1.2-0.3,2.5-0.5,3.7-0.7l5.6-0.8c0.7-0.1,1-0.1,1.2-0.1l3.3-0.2
			c0.1,0,0.4,0,0.5,0l1.9-0.1c8.6,0.1,16.5,1.5,25.2,4.4l4.9,1.8c1.3,0.5,2.4,1,3.6,1.5l1.2,0.6c1.7,0.8,3.3,1.5,4.8,2.3l-21.6-45.8
			c-0.5-1-1.5-1.6-2.6-1.6h-22.4c-1.1,0-2.1,0.6-2.6,1.6l-19.1,41l3.6-1.3C258.6,293.9,260.1,293.5,261.5,293z"/>
		<path fill="#8C7BFA" d="M351.6,363.6l-6.5-13.7l-23.2-49.4c-1.5-0.8-3.1-1.6-4.8-2.3l-1.2-0.6c-1.2-0.5-2.3-1.1-3.6-1.5l-4.9-1.8
			c-8.7-2.9-16.6-4.3-25.2-4.4l-1.9,0.1c-0.1,0-0.4,0-0.5,0l-3.3,0.2c-0.3,0-0.6,0-1.2,0.1l-5.6,0.8c-1.2,0.2-2.6,0.4-3.7,0.7
			c-0.1,0-0.3,0.1-0.4,0.1l-4.1,1.1c-1.5,0.4-2.9,0.8-4.2,1.3l-3.6,1.3l-25.8,55.2l-9.5,20.3l-22.1,47.3c3.8-3,8.2-6.4,13-10.1
			l8-6.3c5.4-4.2,11.1-8.7,17.2-13.2c6.5-4.9,12.8-9.4,18.7-13.4c5.4-3.5,12.3-8,18.7-11c2.2-1.1,4.5-2,6.6-2.7l4.7-11.4l3.8-9.2
			l3.7,9.1l6.6,16.3c5.1,2.8,10.3,6.1,14.4,8.8c5.9,4,12.2,8.5,18.7,13.4c6.1,4.6,11.8,9,17.2,13.2l8,6.3
			c7.4,5.8,13.7,10.7,18.6,14.4c3.3,2.5,6,4.5,7.9,5.9l0.3,0.2L351.6,363.6z"/>
		<g>
			<path fill="#FF3E54" d="M448.5,388.9c-6.1,4.6-11.9,9-17.2,13.2l-8,6.3c-1.7,1.3-3.3,2.6-4.8,3.8v32.2c0,1.6,1.3,2.9,2.9,2.9
				h49.5c1.6,0,2.9-1.3,2.9-2.9v-73c-2.3,1.4-4.5,2.9-6.5,4.2C461.4,379.4,455.1,384,448.5,388.9z"/>
			<path fill="#FF3E54" d="M569.6,408.4l-8-6.3c-5.4-4.2-11.1-8.7-17.2-13.2c-6.5-4.9-12.8-9.4-18.7-13.4
				c-5.3-3.5-12.3-7.9-18.6-10.9c-2.7-1.3-5.4-2.4-7.6-3.1c-1.2-0.3-2.2-0.5-2.8-0.6h-0.8c-0.2,0.1-0.5,0.1-0.7,0.2h-0.1
				c-0.3,0.1-0.8,0.2-1.2,0.3c-2.5,0.8-5.2,1.9-7.9,3.1c-2.1,1-4.2,2.1-6.4,3.4l78.3,78.5c0.5,0.5,1.3,0.8,2,0.8h20.4
				c1.6,0,2.9-1.3,2.9-2.9v-25.5C579.1,415.8,574.6,412.3,569.6,408.4z"/>
		</g>
		<path fill="#F2E800" d="M453,302.7c2.9-1.6,5.6-3.1,8.8-4.5l1.2-0.6c1.2-0.5,2.3-1.1,3.6-1.5l4.7-1.7c1.3-0.5,2.8-0.9,4.2-1.3
			l4.1-1.1c0.1,0,0.3-0.1,0.4-0.1c0.4-0.1,0.8-0.2,1.3-0.3l-37.8-37.7c-0.5-0.5-1.3-0.8-2-0.8h-20.1c-1.6,0-2.9,1.3-2.9,2.9v73.4
			c2.5-2.4,4.9-4.7,7.4-6.9C435.2,314.2,443.8,307.9,453,302.7z"/>
		<path fill="#F2E800" d="M531.1,298.2c3.1,1.4,5.8,2.9,8.4,4.3l0.3,0.2c9.2,5.2,17.8,11.5,27.1,19.7c5.3,4.7,10.6,9.8,16,15.6
			v-82.1c0-1.6-1.3-2.9-2.9-2.9h-49.5c-1.6,0-2.9,1.3-2.9,2.9v40.8c0.7,0.3,1.4,0.6,2.1,1L531.1,298.2z"/>
		<path fill="#8C7BFA" d="M567,322.4c-9.3-8.2-17.9-14.5-27.1-19.7l-0.3-0.2c-2.6-1.4-5.3-2.9-8.4-4.3l-1.2-0.6
			c-0.7-0.3-1.4-0.6-2.1-1v41.3l-46.5-46.4c-0.4,0.1-0.9,0.2-1.3,0.3c-0.1,0-0.3,0.1-0.4,0.1l-4.1,1.1c-1.5,0.4-2.9,0.8-4.2,1.3
			l-4.7,1.7c-1.3,0.5-2.4,1-3.6,1.5l-1.2,0.6c-3.1,1.4-5.9,2.9-8.8,4.5c-9.2,5.2-17.8,11.5-27.1,19.7c-2.5,2.2-4.9,4.5-7.4,6.9v20
			V387v25.1c1.6-1.2,3.2-2.5,4.8-3.8l8-6.3c5.4-4.2,11.1-8.7,17.2-13.2c6.5-4.9,12.8-9.4,18.7-13.4c2-1.3,4.2-2.7,6.5-4.2v-9.3
			l5.8,5.8c2.1-1.2,4.3-2.4,6.4-3.4c2.7-1.3,5.4-2.4,7.9-3.1c0.5-0.1,0.9-0.2,1.2-0.3h0.1c0.2,0,0.5-0.1,0.7-0.2h0.8
			c0.6,0.1,1.6,0.3,2.8,0.6c2.2,0.7,4.9,1.8,7.6,3.1c6.3,3,13.3,7.5,18.6,10.9c5.9,4,12.2,8.5,18.7,13.4c6.1,4.6,11.8,9,17.2,13.2
			l8,6.3c5,3.9,9.5,7.4,13.4,10.4v-32v-39v-9.7C577.6,332.3,572.4,327.1,567,322.4z"/>
		<path fill="#FF3E54" d="M776.1,402.1c-5.4-4.2-11.1-8.7-17.2-13.2c-3.1-2.4-6.2-4.6-9.2-6.8c-7.4,6.2-17.2,9.9-27.3,9.9
			c-14.9,0-28.1-8-35.4-19.9c-1.9,1.2-3.6,2.3-5.3,3.4c-5.8,3.9-12.1,8.4-18.7,13.4c-6.1,4.6-11.9,9-17.2,13.2l-3.4,2.7
			c17.5,25.6,46.8,42.4,80,42.4c28.2,0,53.6-12.1,71.3-31.3c-2.9-2.3-6.1-4.8-9.6-7.5L776.1,402.1z"/>
		<path fill="#F2E800" d="M640.4,322.4c9.3-8.2,17.9-14.5,27.1-19.7c2.9-1.6,5.6-3.1,8.8-4.5l1.2-0.6c1.2-0.5,2.3-1.1,3.6-1.5
			l4.7-1.7c1.3-0.5,2.8-0.9,4.2-1.3l4.1-1.1c0.1,0,0.3-0.1,0.4-0.1c1.2-0.3,2.5-0.5,3.7-0.7l5.6-0.8c0.7-0.1,1-0.1,1.2-0.1l3.3-0.2
			c0.1,0,0.4,0,0.5,0l1.9-0.1c8.6,0.1,16.5,1.5,25.2,4.4l4.9,1.8c1.3,0.5,2.4,1,3.6,1.5l1.2,0.6c3.1,1.4,5.8,2.9,8.4,4.3l0.3,0.2
			c3.9,2.2,7.7,4.6,11.5,7.3l24.8-24.7c0.5-0.5,0.8-1.3,0.8-2c0-0.8-0.3-1.5-0.9-2c-18.5-18.2-42.7-28.2-68.3-28.2
			c-48.5,0-88.8,35.9-95.8,82.7C631.3,330.9,635.8,326.5,640.4,322.4z"/>
		<path fill="#8C7BFA" d="M804.5,345.8l15-0.1v-2.6c0-1.6-1.3-2.9-2.9-2.9h-17.1c0.8,0.9,1.5,1.7,2.3,2.6
			C802.8,343.8,803.6,344.8,804.5,345.8z"/>
		<g>
			<path fill="#8C7BFA" d="M682.2,339.5c4.7-17.9,21-31.2,40.2-31.2c11,0,21.2,4.1,29.5,11.8c1.1,1,2.9,1,4-0.1l10.1-10
				c-3.8-2.7-7.6-5.1-11.5-7.3l-0.3-0.2c-2.6-1.4-5.3-2.9-8.4-4.3l-1.2-0.6c-1.2-0.5-2.3-1.1-3.6-1.5l-4.9-1.8
				c-8.7-2.9-16.6-4.3-25.2-4.4L709,290c-0.1,0-0.4,0-0.5,0l-3.3,0.2c-0.3,0-0.6,0-1.2,0.1l-5.6,0.8c-1.2,0.2-2.6,0.4-3.7,0.7
				c-0.1,0-0.3,0.1-0.4,0.1l-4.1,1.1c-1.5,0.4-2.9,0.8-4.2,1.3l-4.7,1.7c-1.3,0.5-2.4,1-3.6,1.5l-1.2,0.6c-3.1,1.4-5.9,2.9-8.8,4.5
				c-9.2,5.2-17.8,11.5-27.1,19.7c-4.6,4.1-9.2,8.5-13.8,13.3c-0.6,3.8-0.9,7.7-1,11.7c0,0.9,0,1.8,0,2.7c0,8.5,1.1,16.7,3.1,24.5
				c2.8,10.9,7.5,21.1,13.7,30.1l3.4-2.7c5.4-4.2,11.1-8.7,17.2-13.2c6.5-4.9,12.8-9.4,18.7-13.4c1.6-1.1,3.4-2.2,5.3-3.4
				c-3.9-6.4-6.2-13.9-6.2-22c0-1.1,0.1-2.2,0.1-3.2C681.1,344.4,681.5,341.9,682.2,339.5z"/>
			<path fill="#8C7BFA" d="M804.5,345.8c-0.9-1-1.7-2-2.6-3c-0.8-0.9-1.6-1.7-2.3-2.6h-59.2h-18c-1.6,0-2.9,1.3-2.9,2.9v3.5v17v12.7
				c0,1.6,1.3,2.9,2.9,2.9h23.1h7.4c-1,1-2,2-3.2,3c3,2.2,6.1,4.4,9.2,6.8c6.1,4.6,11.8,9,17.2,13.2l8,6.3c3.4,2.7,6.6,5.2,9.6,7.5
				c8.6-9.4,15.5-20.4,19.9-32.6c2.5-6.8,4.2-14,5.1-21.4c0.5-3.8,0.7-7.7,0.7-11.7v-4.5L804.5,345.8z"/>
		</g>
	</g>
	<g>
		<path fill="#F2E800" d="M77.7,168.8c-10.4-7.8-20.4-15-29.7-21.3c-8.4-5.5-19.4-12.6-29.5-17.4c-4.3-2-8.5-3.8-12.1-4.8
			c-1.9-0.5-3.6-0.8-4.5-0.9l-1.3,0.1c-0.2,0-0.3,0.1-0.5,0.1v67.7c0,1.6,1.3,2.9,2.9,2.9h93c4.7,0,9.2-0.6,13.6-1.7l-4.6-3.6
			C96.5,183.1,87.4,176,77.7,168.8z"/>
		<path fill="#8C7BFA" d="M41.3,18.7l7.8,2.9c2,0.8,3.9,1.6,5.7,2.4l1.9,0.9c4.9,2.2,9.2,4.5,13.3,6.8c0.1,0,0.5,0.3,0.5,0.3
			c14.6,8.3,28.3,18.3,43.1,31.3c8.1,7.1,16,14.9,24.1,23.5c4.6-8.4,7-17.8,7-27.1c0-31.9-26.9-58.9-58.6-58.9H2.9
			C1.3,0.8,0,2.1,0,3.7v8h1.1C15,11.9,27.5,14.1,41.3,18.7z"/>
		<path fill="#FF3E54" d="M154.1,136.9c0-16.3-7.5-32.4-20.3-43.7c1.5-2.1,2.8-4.2,4-6.4c-8.1-8.6-16.1-16.4-24.1-23.5
			C98.9,50.2,85.2,40.3,70.6,32c-0.1,0-0.5-0.3-0.5-0.3c-4.1-2.3-8.4-4.6-13.3-6.8L54.9,24c-1.8-0.8-3.6-1.7-5.7-2.4l-7.8-2.9
			c-13.8-4.6-26.3-6.8-40-6.9H0.3v112.7c0.2,0,0.3-0.1,0.5-0.1l1.3-0.1c0.9,0.1,2.5,0.4,4.5,0.9c3.5,1.1,7.8,2.8,12.1,4.8
			c10,4.8,21.1,11.8,29.5,17.4c9.4,6.3,19.4,13.5,29.7,21.3c9.6,7.2,18.8,14.3,27.3,21l4.6,3.6C134.8,187.1,154.1,163.8,154.1,136.9
			z M55.4,47.6h21c7.4,0,13.5,6,13.5,13.5s-6,13.5-13.5,13.5h-21V47.6z M80,148.6H55.4v-26.9H80c7.2,0,13.5,6.3,13.5,13.5
			C93.4,142.6,87.4,148.6,80,148.6z"/>
		<path fill="#8C7BFA" d="M229.4,63.3c9.6-8.5,18.7-15.7,28-21.9c3.3-4.2,6.1-7.9,8.4-10.8c1.9-2.4,3.3-4.4,4.3-5.8l1.4-2
			c1.5-2.1,1.4-4.9-0.1-6.9L260.7,2.2c-1.6-2.1-4.4-2.8-6.8-1.7l-2.5,1.1c-2.3,1.1-4.6,2.2-7,3.5c-7.7,4.1-15.5,9-23,14.5
			c-5.1,3.7-9.8,7.5-14.3,11.5c-5.7,5.1-10.6,9.9-15,14.9c-6,6.8-10.7,13.2-14.5,19.9c0,0-0.1,0.2-0.1,0.3c-1.1,1.9-2.1,3.9-3.1,6.2
			l-0.4,0.9c-0.4,0.8-0.8,1.7-1.1,2.6l-1.3,3.6c-2.1,6.4-3.1,12.2-3.2,18.5v1.4c0,0.1,0,0.3,0,0.4l0.2,2.4c0,0.2,0,0.4,0.1,0.9
			l0.6,4.1c0.2,0.9,0.3,1.9,0.5,2.7c0,0.1,0,0.2,0.1,0.3l0.8,3c0.3,1.1,0.6,2.1,1,3.1l1.3,3.4c0.4,0.9,0.7,1.8,1.1,2.6l0.4,0.9
			c0.1,0.1,0.1,0.3,0.2,0.4c7.4-9.9,14.8-19.1,22.7-28.1C208.1,83.4,218.6,72.8,229.4,63.3z"/>
		<path fill="#F2E800" d="M239.9,188.3c1.5,0.8,2.9,1.7,4.4,2.4c2.3,1.3,4.7,2.4,7,3.5l2.5,1.1c0.8,0.3,1.6,0.5,2.3,0.5
			c1.7,0,3.4-0.8,4.5-2.2l10.7-13.8c1.5-2,1.6-4.7,0.2-6.8l-1.5-2.1c-0.7-0.9-1.6-2.2-2.8-3.7c-0.6,0.5-1.3,1-1.9,1.4
			C256.4,175.5,247.9,182.1,239.9,188.3z"/>
		<path fill="#FF3E54" d="M255.2,151.7l-4.6-5.9c-3.1-3.9-6.4-8.2-9.7-12.6c-3.6-4.8-6.9-9.4-9.8-13.7c-2.6-3.9-5.8-9-8.1-13.7
			c-0.9-2-1.7-3.9-2.3-5.8c-0.1-0.3-0.1-0.7-0.2-0.9V99c0-0.2-0.1-0.4-0.1-0.5v-0.6c0.1-0.4,0.2-1.2,0.4-2.1
			c0.5-1.6,1.3-3.6,2.2-5.6c2.2-4.6,5.5-9.8,8-13.6c2.9-4.3,6.2-9,9.9-13.8c3.3-4.5,6.6-8.7,9.7-12.6l4.6-5.9c0.8-1,1.5-1.9,2.2-2.9
			c-9.2,6.3-18.4,13.4-28,21.9c-10.8,9.5-21.3,20.1-32.3,32.4c-7.9,8.9-15.3,18.2-22.7,28.1c1,2.1,2,4,3.1,6.1
			c3.8,6.8,8.5,13.1,14.5,19.9c4.4,5,9.3,9.9,15,14.9c4.5,4,9.2,7.8,14.3,11.5c6.1,4.5,12.3,8.5,18.6,12.1
			c8-6.2,16.5-12.8,25.4-19.5c0.6-0.5,1.3-1,1.9-1.4c-0.5-0.6-1-1.3-1.5-2C263.1,161.8,259.4,157.1,255.2,151.7z"/>
		<path fill="#8C7BFA" d="M461.7,50.2l4.6-5.9c4.2-5.4,7.9-10.1,10.6-13.6c1.9-2.4,3.3-4.4,4.3-5.8l1.4-2c1.5-2.1,1.4-4.9-0.1-6.9
			L471.8,2.3c-1.6-2.1-4.4-2.8-6.8-1.7l-2.5,1.1c-2.3,1.1-4.6,2.2-7,3.5c-7.7,4.1-15.5,9-23,14.5c-5.1,3.7-9.8,7.5-14.3,11.5
			c-1.2,1.1-2.4,2.2-3.6,3.3c12.7,7.6,24.8,16.6,37.7,27.9C455.5,58.1,458.7,54,461.7,50.2z"/>
		<path fill="#8C7BFA" d="M294,21.6l7.4-2.7c2.1-0.8,4.4-1.4,6.7-2.1l6.4-1.8c0.2-0.1,0.4-0.1,0.7-0.2c1.9-0.4,3.9-0.8,5.9-1.1
			l6.3-0.9c-4.3-2.7-8.6-5.3-12.9-7.6c-2.3-1.3-4.7-2.4-7-3.5L305,0.6c-2.4-1.1-5.2-0.4-6.8,1.7L287.5,16c-1.6,2-1.6,4.8-0.1,6.9
			l0.9,1.2l0,0C290.1,23.2,291.9,22.3,294,21.6z"/>
		<path fill="#F2E800" d="M346.1,125.3c-1.9-0.5-3.6-0.8-4.5-0.9l-1.3,0.1c-0.4,0.1-0.8,0.2-1.2,0.3H339c-0.5,0.2-1.3,0.3-2,0.5
			c-3.9,1.2-8.2,2.9-12.5,5c-2.2,1.1-4.5,2.3-6.8,3.5c-3.2,4.3-6.4,8.4-9.4,12.2l-4.6,5.9c-4.2,5.4-7.9,10.1-10.6,13.6
			c-1.9,2.4-3.3,4.4-4.3,5.7l-1.5,2.1c-1.4,2.1-1.4,4.8,0.2,6.8l10.7,13.8c1.1,1.4,2.8,2.2,4.5,2.2c0.8,0,1.6-0.2,2.3-0.5l2.5-1.1
			c2.4-1.1,4.7-2.3,7-3.5c7.7-4.1,15.4-9,23-14.5c5.1-3.7,9.8-7.5,14.3-11.5c5.7-5.1,10.6-10,15-14.9c3.1-3.5,5.8-6.9,8.3-10.3
			c-5.6-3.4-11.4-6.7-17-9.4C353.9,128.1,349.6,126.4,346.1,125.3z"/>
		<path fill="#FF3E54" d="M384.7,123.4l0.3-0.7l0.3,0.7c1,2.3,2.1,4.3,3.3,6.4c3.8,6.8,8.5,13.1,14.5,19.9c4.4,5,9.3,9.9,15,14.9
			c4.5,4,9.2,7.8,14.3,11.5c7.5,5.5,15.3,10.4,23,14.5c2.3,1.3,4.7,2.4,7,3.5l2.5,1.1c0.8,0.3,1.6,0.5,2.3,0.5
			c1.7,0,3.4-0.8,4.5-2.2l10.7-13.8c1.5-2,1.6-4.7,0.2-6.8l-1.5-2.1c-1-1.3-2.4-3.3-4.3-5.7c-2.7-3.6-6.4-8.2-10.6-13.6l-4.6-5.9
			c-3.1-3.9-6.4-8.2-9.7-12.6c-3.6-4.8-6.9-9.4-9.8-13.7c-2.6-3.9-5.8-9-8.1-13.7c-0.9-2-1.7-3.9-2.3-5.8c-0.1-0.3-0.1-0.7-0.2-0.9
			v-0.1c0-0.2-0.1-0.4-0.1-0.5v-0.6c0.1-0.4,0.2-1.2,0.4-2.1c0.5-1.6,1.3-3.6,2.2-5.6c2.2-4.6,5.5-9.8,8-13.6
			c2.9-4.3,6.2-9,9.9-13.8c0.1-0.1,0.2-0.3,0.3-0.4c-12.9-11.3-25-20.3-37.7-27.9c-4.2,3.9-7.9,7.7-11.4,11.6
			c-6,6.8-10.7,13.2-14.5,19.9c0,0-0.1,0.2-0.1,0.3c-1.1,1.9-2.1,3.9-3.1,6.2l-0.3,0.8l-0.3-0.8c-1-2.3-2.1-4.3-3.1-6.2
			c0,0-0.1-0.2-0.1-0.3c-3.8-6.8-8.5-13.1-14.5-19.9c-4.4-5-9.3-9.9-15-14.9c-4.5-4-9.2-7.8-14.3-11.5c-3.4-2.5-6.7-4.8-10.2-7
			l-6.3,0.9c-2,0.3-4,0.7-5.9,1.1c-0.2,0-0.4,0.1-0.7,0.2l-6.4,1.8c-2.3,0.6-4.6,1.3-6.7,2.1l-7.4,2.7c-2,0.8-3.9,1.6-5.7,2.5l0,0
			l0.6,0.8c1,1.4,2.5,3.3,4.3,5.8c2.7,3.6,6.4,8.2,10.6,13.6l4.6,5.9c3.1,3.9,6.4,8.2,9.7,12.6c3.6,4.8,6.9,9.4,9.9,13.8
			c2.6,3.9,5.8,9,8,13.6c0.9,2,1.7,4,2.2,5.6c0.2,0.9,0.4,1.6,0.4,2.1v0.6c0,0.2-0.1,0.4-0.1,0.5v0.1c-0.1,0.3-0.1,0.6-0.2,0.9
			c-0.6,1.8-1.4,3.8-2.3,5.8c-2.2,4.7-5.5,9.8-8.1,13.7c-2.9,4.3-6.2,8.9-9.8,13.7c-0.1,0.2-0.2,0.3-0.4,0.5
			c2.3-1.3,4.6-2.4,6.8-3.5c4.3-2,8.5-3.8,12.5-5c0.7-0.1,1.4-0.3,2-0.5h0.1c0.4-0.1,0.8-0.2,1.2-0.3l1.3-0.1
			c0.9,0.1,2.5,0.4,4.5,0.9c3.5,1.1,7.8,2.8,12.1,4.8c5.6,2.7,11.4,6,17,9.4c2.3-3.2,4.4-6.4,6.2-9.7
			C382.6,127.7,383.7,125.7,384.7,123.4z"/>
		<path fill="#8C7BFA" d="M568.8,63.3c4.7-4.2,9.3-8,13.9-11.6c-1.5-1.8-3-3.7-4.7-5.6c-4.4-5-9.3-9.9-15-14.9
			c-4.5-4-9.2-7.8-14.3-11.5c-7.5-5.5-15.3-10.4-23-14.5c-2.3-1.3-4.7-2.4-7-3.5l-2.5-1.1c-2.4-1.1-5.2-0.4-6.8,1.7L498.7,16
			c-1.6,2-1.6,4.8-0.1,6.9l1.4,2c1,1.4,2.5,3.3,4.3,5.8c2.7,3.6,6.4,8.2,10.6,13.6l4.6,5.9c3.1,3.9,6.4,8.2,9.7,12.6
			c3.6,4.8,6.9,9.4,9.9,13.8c1.9,2.8,4.1,6.3,6.1,9.8C553.1,77.9,560.9,70.3,568.8,63.3z"/>
		<path fill="#FF3E54" d="M549.3,95.8c0.2,0.9,0.4,1.6,0.4,2.1v0.6c0,0.2-0.1,0.4-0.1,0.5v0.1c-0.1,0.3-0.1,0.6-0.2,0.9
			c-0.6,1.8-1.4,3.8-2.3,5.8c-2.2,4.7-5.5,9.8-8.1,13.7c-2.9,4.3-6.2,8.9-9.8,13.7c-3.4,4.5-6.6,8.7-9.7,12.6l-4.6,5.9
			c-4.2,5.4-7.9,10.1-10.6,13.6c-1.9,2.4-3.3,4.4-4.3,5.7l-1.5,2.1c-1.4,2.1-1.4,4.8,0.2,6.8l10.7,13.8c1.1,1.4,2.8,2.2,4.5,2.2
			c0.8,0,1.6-0.2,2.3-0.5l2.5-1.1c2.4-1.1,4.7-2.3,7-3.5c7.7-4.1,15.4-9,23-14.5c5.1-3.7,9.8-7.5,14.3-11.5c5.7-5.1,10.6-10,15-14.9
			c6-6.8,10.6-13.2,14.5-19.9c1.2-2.1,2.3-4.1,3.3-6.4l0.4-0.9c0.4-0.8,0.8-1.7,1.1-2.6l1.3-3.4c0.4-1,0.7-2,1-3.1l0.8-3
			c0-0.1,0.1-0.2,0.1-0.3c0.2-0.9,0.4-1.8,0.5-2.7l0.6-4.1c0.1-0.5,0.1-0.7,0.1-0.9l0.2-2.4c0-0.1,0-0.3,0-0.4v-1.4
			c-0.1-6.3-1.1-12.1-3.2-18.5l-1.3-3.6c-0.4-0.9-0.7-1.8-1.1-2.6l-0.4-0.9c-1-2.3-2.1-4.3-3.1-6.2c0,0-0.1-0.2-0.1-0.3
			c-2.8-4.9-6-9.6-9.8-14.4c-4.6,3.6-9.2,7.4-13.9,11.6c-7.9,7-15.8,14.6-23.7,23.1c0.7,1.3,1.4,2.6,2,3.8
			C548,92.2,548.8,94.2,549.3,95.8z"/>
		<path fill="#F2E800" d="M768,177.3v14.9c0,1.6,1.3,2.9,2.9,2.9h20l-6.8-5.3C778.9,185.8,773.6,181.6,768,177.3z"/>
		<path fill="#8C7BFA" d="M627.7,24c1.8-0.9,3.7-1.7,5.7-2.5l7.4-2.7c2.1-0.8,4.4-1.4,6.7-2.1l6.4-1.8c0.2-0.1,0.4-0.1,0.7-0.2
			c1.7-0.4,3.6-0.7,5.4-1L646.6,1.6c-0.5-0.5-1.2-0.7-1.9-0.7h-22.4c-1.6,0-2.9,1.3-2.9,2.9V28c2-1,4.1-2,6.3-3L627.7,24z"/>
		<path fill="#F2E800" d="M634.4,147.6c-4.8,3.2-9.7,6.7-14.8,10.3v34.3c0,1.6,1.3,2.9,2.9,2.9h49.7c1.6,0,2.9-1.3,2.9-2.9v-66.6
			c-3.5,1.2-7.3,2.7-11,4.5C653.9,134.9,642.9,142,634.4,147.6z"/>
		<path fill="#8C7BFA" d="M823.5,94.1V3.8c0-1.6-1.3-2.9-2.9-2.9h-22.4c-0.7,0-1.4,0.3-1.9,0.7l-38.6,35.2c11.7,7.3,23,15.9,35,26.5
			C803,72.4,813.1,82.5,823.5,94.1z"/>
		<path fill="#FF3E54" d="M823.5,192.2V94.1c-10.4-11.6-20.5-21.7-30.8-30.7c-12-10.6-23.3-19.2-35-26.5l-36.1,32.9l-61.6-56
			c-1.8,0.3-3.7,0.7-5.4,1c-0.2,0-0.4,0.1-0.7,0.2l-6.4,1.8c-2.3,0.6-4.6,1.3-6.7,2.1l-7.4,2.7c-2,0.8-3.9,1.6-5.7,2.5l-1.9,0.9
			c-2.2,1-4.3,2-6.3,3v130c5.1-3.7,10.1-7.1,14.8-10.3c8.5-5.6,19.5-12.6,29.6-17.4c3.7-1.8,7.5-3.3,11-4.5v-23.5l44.7,40.4
			c1.1,1,2.8,1,3.8,0l44.5-40.6v75.4c5.6,4.3,10.9,8.4,16.1,12.5l6.8,5.3h29.8C822.2,195.1,823.5,193.8,823.5,192.2z"/>
	</g>
</g>
</svg>
