<?xml version="1.0" encoding="utf-8"?>
<!-- Generator: Adobe Illustrator 19.0.0, SVG Export Plug-In . SVG Version: 6.00 Build 0)  -->
<svg version="1.1" id="Calque_1" xmlns="http://www.w3.org/2000/svg" xmlns:xlink="http://www.w3.org/1999/xlink" x="0px" y="0px"
	 viewBox="0 0 40 40" enable-background="new 0 0 40 40" xml:space="preserve">
<path id="XMLID_2_" fill="#7976B6" d="M23,14.2c0.9-0.8,1.7-1.4,2.5-2.1c-0.3-0.3-0.5-0.7-0.9-1c-0.8-0.9-1.7-1.8-2.7-2.7
	c-0.8-0.7-1.7-1.4-2.6-2.1c-1.4-1-2.8-1.9-4.2-2.6c-0.4-0.2-0.9-0.4-1.3-0.6l-0.5-0.2c-0.4-0.2-0.9-0.1-1.2,0.3l-1.9,2.5
	C10,6,10,6.5,10.3,6.9l0.3,0.4c0.2,0.3,0.5,0.6,0.8,1.1c0.5,0.7,1.2,1.5,1.9,2.5l0.8,1.1c0.6,0.7,1.2,1.5,1.8,2.3
	c0.7,0.9,1.3,1.7,1.8,2.5c0.3,0.5,0.7,1.1,1.1,1.8C20.2,16.9,21.6,15.5,23,14.2z"/>
<path id="XMLID_1_" fill="#E94358" d="M19.5,20.1c0,0.2,0.1,0.3,0.1,0.4v0.1c0,0,0,0.1,0,0.1v0c0,0.1,0,0.1,0,0.2
	c-0.1,0.3-0.3,0.7-0.4,1.1c-0.4,0.9-1,1.8-1.5,2.5c-0.5,0.8-1.1,1.6-1.8,2.5c-0.6,0.8-1.2,1.6-1.8,2.3l-0.8,1.1
	c-0.8,1-1.4,1.8-1.9,2.5c-0.3,0.4-0.6,0.8-0.8,1l-0.3,0.4c-0.3,0.4-0.3,0.9,0,1.2l1.9,2.5c0.2,0.3,0.5,0.4,0.8,0.4
	c0.1,0,0.3,0,0.4-0.1l0.5-0.2c0.4-0.2,0.9-0.4,1.3-0.6c1.4-0.7,2.8-1.6,4.2-2.6c0.9-0.7,1.8-1.4,2.6-2.1c1-0.9,1.9-1.8,2.7-2.7
	c1.1-1.2,1.9-2.4,2.6-3.6c0.2-0.4,0.4-0.7,0.6-1.2L28,25c0.1-0.1,0.1-0.3,0.2-0.5l0.2-0.6c0.1-0.2,0.1-0.4,0.2-0.6l0.1-0.5
	c0,0,0,0,0-0.1c0-0.2,0.1-0.3,0.1-0.5l0.1-0.7c0-0.1,0-0.1,0-0.2l0-0.4c0,0,0-0.1,0-0.1v-0.3c0-1.1-0.2-2.2-0.6-3.4l-0.2-0.7
	c-0.1-0.2-0.1-0.3-0.2-0.5l-0.1-0.2c-0.2-0.4-0.4-0.8-0.6-1.1c0,0,0,0,0-0.1c-0.5-0.9-1.1-1.7-1.8-2.6c-0.8,0.7-1.7,1.3-2.5,2.1
	c-1.4,1.3-2.9,2.6-4.3,4.2c0.1,0.2,0.3,0.5,0.4,0.7C19.2,19.4,19.4,19.8,19.5,20.1z"/>
</svg>
