<?xml version="1.0" encoding="utf-8"?>
<!-- Generator: Adobe Illustrator 19.0.0, SVG Export Plug-In . SVG Version: 6.00 Build 0)  -->
<svg version="1.1" id="Calque_1" xmlns="http://www.w3.org/2000/svg" xmlns:xlink="http://www.w3.org/1999/xlink" x="0px" y="0px"
	 viewBox="3755.6 -183.7 400 400" enable-background="new 3755.6 -183.7 400 400" xml:space="preserve">
<g>
	<path fill="none" d="M3810.6,69.7c1-1.7,1.6-3.6,1.6-5.7c0-6.2-5-11.2-11.2-11.2h-10.2v11.8V75h10.2
		C3805.1,75,3808.6,72.9,3810.6,69.7z"/>
	<path fill="#FF3E54" d="M3825,98.3c-2.5-1.9-5.1-4-7.9-6.1c-3-2.3-5.9-4.3-8.6-6.2c-2.4-1.6-5.7-3.6-8.6-5
		c-1.2-0.6-2.5-1.1-3.5-1.4c-0.6-0.1-1-0.2-1.3-0.3h-0.4c-0.1,0-0.2,0-0.3,0.1h0c-0.1,0-0.4,0.1-0.6,0.1c-1.2,0.4-2.4,0.9-3.6,1.4
		c-2.9,1.4-6.1,3.5-8.6,5.1c-2.7,1.8-5.6,3.9-8.6,6.2c-2.7,2-5.2,4-7.6,5.8v19.8c0,0.7,0.6,1.3,1.3,1.3h22.8c0.7,0,1.3-0.6,1.3-1.3
		V96.1h11.9l7.8,22.2c0.2,0.5,0.7,0.9,1.2,0.9h26.3c0.5,0,0.8-0.2,1.1-0.6c0.2-0.4,0.3-0.8,0.1-1.2l-4.8-11.6
		c-1.7-1.3-3.6-2.8-5.8-4.5L3825,98.3z"/>
	<path fill="#F2E800" d="M3779,50.4l0.6-0.3c0.6-0.2,1.1-0.5,1.7-0.7l2.2-0.8c0.6-0.2,1.3-0.4,1.9-0.6l1.9-0.5c0,0,0.1,0,0.2,0
		c0.6-0.1,1.2-0.2,1.7-0.3l2.6-0.4c0.3,0,0.5,0,0.6,0l1.5-0.1c0,0,0.2,0,0.2,0l0.9,0c4,0,7.6,0.7,11.6,2l2.3,0.8
		c0.6,0.2,1.1,0.5,1.7,0.7l0.6,0.3c1.4,0.6,2.7,1.3,3.9,2l0.1,0.1c4.2,2.4,8.2,5.3,12.5,9.1c2.8,2.4,5.5,5.1,8.3,8.2
		c0.5-2.3,0.7-4.6,0.7-6.9c0-18.4-14.9-33.3-33.3-33.3h-36.6c-0.7,0-1.3,0.6-1.3,1.3v28.2c3.2-2.6,6.4-4.8,9.6-6.6
		C3776.3,51.8,3777.5,51.1,3779,50.4z"/>
	<path fill="#8C7BFA" d="M3829.1,83.7c2.1-2.6,3.8-5.6,5.1-8.7c0.7-1.7,1.2-3.5,1.6-5.3c-2.8-3.1-5.5-5.8-8.3-8.2
		c-4.3-3.8-8.3-6.7-12.5-9.1l-0.1-0.1c-1.2-0.6-2.4-1.3-3.9-2l-0.6-0.3c-0.6-0.2-1.1-0.5-1.7-0.7l-2.3-0.8c-4-1.3-7.7-2-11.6-2
		l-0.9,0c0,0-0.2,0-0.2,0l-1.5,0.1c-0.1,0-0.3,0-0.6,0l-2.6,0.4c-0.6,0.1-1.2,0.2-1.7,0.3c0,0-0.1,0-0.2,0l-1.9,0.5
		c-0.7,0.2-1.3,0.4-1.9,0.6l-2.2,0.8c-0.6,0.2-1.1,0.5-1.7,0.7l-0.6,0.3c-1.4,0.6-2.7,1.3-4.1,2.1c-3.3,1.8-6.4,4-9.6,6.6v16.5v5.5
		V98c2.4-1.8,4.9-3.8,7.6-5.8c3-2.3,5.9-4.3,8.6-6.2c2.5-1.6,5.7-3.7,8.6-5.1c1.2-0.6,2.5-1.1,3.6-1.4c0.2,0,0.4-0.1,0.6-0.1h0
		c0.1,0,0.2,0,0.3-0.1h0.4c0.3,0,0.7,0.1,1.3,0.3c1,0.3,2.3,0.8,3.5,1.4c2.9,1.4,6.1,3.5,8.6,5c2.7,1.8,5.6,3.9,8.6,6.2
		c2.8,2.1,5.4,4.1,7.9,6.1l3.7,2.9c2.1,1.7,4.1,3.2,5.8,4.5l-8-19.1C3827.4,85.7,3828.3,84.7,3829.1,83.7z M3790.8,64.6V52.8h10.2
		c6.2,0,11.2,5,11.2,11.2c0,2.1-0.6,4.1-1.6,5.7c-1.9,3.2-5.5,5.3-9.6,5.3h-10.2V64.6z"/>
	<path fill="#FF3E54" d="M3936,107.9c-2.3-1.7-5.2-4-8.6-6.6l-3.7-2.9c-2.5-1.9-5.1-4-7.9-6.1c-3-2.3-5.9-4.3-8.6-6.2
		c-1.9-1.2-4.3-2.8-6.6-4.1l2.1,5.3h-13.8l3.1-7.5c-1,0.3-2,0.7-3,1.2c-2.9,1.4-6.1,3.5-8.6,5.1c-2.7,1.8-5.6,3.9-8.6,6.2
		c-2.8,2.1-5.5,4.1-7.9,6.1l-3.7,2.9c-2.2,1.8-4.2,3.3-6,4.7l-5.3,11.3c-0.2,0.4-0.1,0.9,0.1,1.2s0.6,0.6,1.1,0.6h22.8
		c0.5,0,1-0.3,1.2-0.8l4.8-10.6h33.9l5,10.6c0.2,0.5,0.7,0.7,1.2,0.7h22.8c0.5,0,0.9-0.2,1.1-0.6c0.2-0.4,0.3-0.9,0.1-1.2l-3.1-6.5
		l-0.1-0.1C3938.7,110,3937.5,109.1,3936,107.9z"/>
	<path fill="#F2E800" d="M3884,48l1.9-0.5c0,0,0.1,0,0.2,0c0.6-0.1,1.2-0.2,1.7-0.3l2.6-0.4c0.3,0,0.5,0,0.6,0l1.5-0.1
		c0,0,0.2,0,0.2,0l0.9,0c4,0,7.6,0.7,11.6,2l2.3,0.8c0.6,0.2,1.1,0.5,1.7,0.7l0.6,0.3c0.8,0.4,1.5,0.7,2.2,1.1l-10-21.1
		c-0.2-0.5-0.7-0.7-1.2-0.7h-10.3c-0.5,0-1,0.3-1.2,0.7l-8.8,18.9l1.7-0.6C3882.7,48.4,3883.4,48.3,3884,48z"/>
	<path fill="#8C7BFA" d="M3925.5,80.6l-3-6.3l-10.7-22.8c-0.7-0.4-1.4-0.7-2.2-1.1l-0.6-0.3c-0.6-0.2-1.1-0.5-1.7-0.7l-2.3-0.8
		c-4-1.3-7.7-2-11.6-2l-0.9,0c0,0-0.2,0-0.2,0l-1.5,0.1c-0.1,0-0.3,0-0.6,0l-2.6,0.4c-0.6,0.1-1.2,0.2-1.7,0.3c0,0-0.1,0-0.2,0
		L3884,48c-0.7,0.2-1.3,0.4-1.9,0.6l-1.7,0.6l-11.9,25.5l-4.4,9.4l-10.2,21.8c1.8-1.4,3.8-3,6-4.7l3.7-2.9c2.5-1.9,5.1-4,7.9-6.1
		c3-2.3,5.9-4.3,8.6-6.2c2.5-1.6,5.7-3.7,8.6-5.1c1-0.5,2.1-0.9,3-1.2l2.2-5.3l1.8-4.2l1.7,4.2l3,7.5c2.4,1.3,4.7,2.8,6.6,4.1
		c2.7,1.8,5.6,3.9,8.6,6.2c2.8,2.1,5.4,4.1,7.9,6.1l3.7,2.9c3.4,2.7,6.3,4.9,8.6,6.6c1.5,1.2,2.8,2.1,3.6,2.7l0.1,0.1L3925.5,80.6z"
		/>
	<g>
		<path fill="#FF3E54" d="M3970.2,92.2c-2.8,2.1-5.5,4.1-7.9,6.1l-3.7,2.9c-0.8,0.6-1.5,1.2-2.2,1.8v14.8c0,0.7,0.6,1.3,1.3,1.3
			h22.8c0.7,0,1.3-0.6,1.3-1.3V84.2c-1.1,0.6-2.1,1.3-3,1.9C3976.2,87.9,3973.3,90,3970.2,92.2z"/>
		<path fill="#FF3E54" d="M4026.1,101.2l-3.7-2.9c-2.5-1.9-5.1-4-7.9-6.1c-3-2.3-5.9-4.3-8.6-6.2c-2.4-1.6-5.7-3.6-8.6-5
			c-1.2-0.6-2.5-1.1-3.5-1.4c-0.6-0.1-1-0.2-1.3-0.3h-0.4c-0.1,0-0.2,0-0.3,0.1h0c-0.1,0-0.4,0.1-0.6,0.1c-1.2,0.4-2.4,0.9-3.6,1.4
			c-1,0.5-1.9,1-3,1.6l36.1,36.2c0.2,0.2,0.6,0.4,0.9,0.4h9.4c0.7,0,1.3-0.6,1.3-1.3V106C4030.4,104.6,4028.4,103,4026.1,101.2z"/>
	</g>
	<path fill="#F2E800" d="M3972.3,52.5c1.3-0.7,2.6-1.4,4.1-2.1l0.6-0.3c0.6-0.2,1.1-0.5,1.7-0.7l2.2-0.8c0.6-0.2,1.3-0.4,1.9-0.6
		l1.9-0.5c0,0,0.1,0,0.2,0c0.2,0,0.4-0.1,0.6-0.1L3967.9,30c-0.2-0.2-0.6-0.4-0.9-0.4h-9.3c-0.7,0-1.3,0.6-1.3,1.3v33.8
		c1.2-1.1,2.3-2.2,3.4-3.2C3964.1,57.8,3968.1,54.9,3972.3,52.5z"/>
	<path fill="#F2E800" d="M4008.3,50.4c1.4,0.6,2.7,1.3,3.9,2l0.1,0.1c4.2,2.4,8.2,5.3,12.5,9.1c2.4,2.2,4.9,4.5,7.4,7.2V30.9
		c0-0.7-0.6-1.3-1.3-1.3H4008c-0.7,0-1.3,0.6-1.3,1.3v18.8c0.3,0.1,0.6,0.3,1,0.5L4008.3,50.4z"/>
	<path fill="#8C7BFA" d="M4024.9,61.6c-4.3-3.8-8.3-6.7-12.5-9.1l-0.1-0.1c-1.2-0.6-2.4-1.3-3.9-2l-0.6-0.3c-0.3-0.1-0.6-0.3-1-0.5
		v19l-21.4-21.4c-0.2,0-0.4,0.1-0.6,0.1c0,0-0.1,0-0.2,0l-1.9,0.5c-0.7,0.2-1.3,0.4-1.9,0.6l-2.2,0.8c-0.6,0.2-1.1,0.5-1.7,0.7
		l-0.6,0.3c-1.4,0.6-2.7,1.3-4.1,2.1c-4.2,2.4-8.2,5.3-12.5,9.1c-1.2,1-2.3,2.1-3.4,3.2v9.2v17.4v11.6c0.7-0.6,1.5-1.2,2.2-1.8
		l3.7-2.9c2.5-1.9,5.1-4,7.9-6.1c3-2.3,5.9-4.3,8.6-6.2c0.9-0.6,1.9-1.2,3-1.9v-4.3l2.7,2.7c1-0.6,2-1.1,3-1.6
		c1.2-0.6,2.5-1.1,3.6-1.4c0.2,0,0.4-0.1,0.6-0.1h0c0.1,0,0.2,0,0.3-0.1h0.4c0.3,0,0.7,0.1,1.3,0.3c1,0.3,2.3,0.8,3.5,1.4
		c2.9,1.4,6.1,3.5,8.6,5c2.7,1.8,5.6,3.9,8.6,6.2c2.8,2.1,5.4,4.1,7.9,6.1l3.7,2.9c2.3,1.8,4.4,3.4,6.2,4.8V91.2v-18v-4.5
		C4029.7,66.1,4027.4,63.7,4024.9,61.6z"/>
	<path fill="#FF3E54" d="M4121.3,98.3c-2.5-1.9-5.1-4-7.9-6.1c-1.4-1.1-2.9-2.1-4.2-3.1c-3.4,2.9-7.9,4.6-12.6,4.6
		c-6.9,0-13-3.7-16.3-9.2c-0.9,0.6-1.7,1.1-2.4,1.6c-2.7,1.8-5.6,3.9-8.6,6.2c-2.8,2.1-5.5,4.1-7.9,6.1l-1.6,1.2
		c8.1,11.8,21.6,19.5,36.9,19.5c13,0,24.7-5.6,32.9-14.4c-1.3-1.1-2.8-2.2-4.4-3.5L4121.3,98.3z"/>
	<path fill="#F2E800" d="M4058.7,61.6c4.3-3.8,8.3-6.7,12.5-9.1c1.3-0.7,2.6-1.4,4.1-2.1l0.6-0.3c0.6-0.2,1.1-0.5,1.7-0.7l2.2-0.8
		c0.6-0.2,1.3-0.4,1.9-0.6l1.9-0.5c0,0,0.1,0,0.2,0c0.6-0.1,1.2-0.2,1.7-0.3l2.6-0.4c0.3,0,0.5,0,0.6,0l1.5-0.1c0,0,0.2,0,0.2,0
		l0.9,0c4,0,7.6,0.7,11.6,2l2.3,0.8c0.6,0.2,1.1,0.5,1.7,0.7l0.6,0.3c1.4,0.6,2.7,1.3,3.9,2l0.1,0.1c1.8,1,3.6,2.1,5.3,3.4
		l11.4-11.4c0.2-0.2,0.4-0.6,0.4-0.9c0-0.4-0.1-0.7-0.4-0.9c-8.5-8.4-19.7-13-31.5-13c-22.4,0-40.9,16.6-44.2,38.1
		C4054.5,65.5,4056.6,63.5,4058.7,61.6z"/>
	<path fill="#8C7BFA" d="M4134.4,72.4l6.9,0v-1.2c0-0.7-0.6-1.3-1.3-1.3h-7.9c0.4,0.4,0.7,0.8,1.1,1.2
		C4133.6,71.4,4134,71.9,4134.4,72.4z"/>
	<g>
		<path fill="#8C7BFA" d="M4078,69.5c2.2-8.3,9.7-14.4,18.5-14.4c5.1,0,9.8,1.9,13.6,5.4c0.5,0.5,1.3,0.5,1.8,0l4.7-4.6
			c-1.8-1.2-3.5-2.4-5.3-3.4l-0.1-0.1c-1.2-0.6-2.4-1.3-3.9-2l-0.6-0.3c-0.6-0.2-1.1-0.5-1.7-0.7l-2.3-0.8c-4-1.3-7.7-2-11.6-2
			l-0.9,0c0,0-0.2,0-0.2,0l-1.5,0.1c-0.1,0-0.3,0-0.6,0l-2.6,0.4c-0.6,0.1-1.2,0.2-1.7,0.3c0,0-0.1,0-0.2,0l-1.9,0.5
			c-0.7,0.2-1.3,0.4-1.9,0.6l-2.2,0.8c-0.6,0.2-1.1,0.5-1.7,0.7l-0.6,0.3c-1.4,0.6-2.7,1.3-4.1,2.1c-4.2,2.4-8.2,5.3-12.5,9.1
			c-2.1,1.9-4.2,3.9-6.4,6.1c-0.3,1.8-0.4,3.6-0.5,5.4c0,0.4,0,0.8,0,1.2c0,3.9,0.5,7.7,1.4,11.3c1.3,5,3.5,9.7,6.3,13.9l1.6-1.2
			c2.5-1.9,5.1-4,7.9-6.1c3-2.3,5.9-4.3,8.6-6.2c0.7-0.5,1.6-1,2.4-1.6c-1.8-3-2.9-6.4-2.9-10.1c0-0.5,0-1,0-1.5
			C4077.5,71.7,4077.7,70.6,4078,69.5z"/>
		<path fill="#8C7BFA" d="M4134.4,72.4c-0.4-0.5-0.8-0.9-1.2-1.4c-0.4-0.4-0.7-0.8-1.1-1.2h-27.3h-8.3c-0.7,0-1.3,0.6-1.3,1.3v1.6
			v7.8v5.9c0,0.7,0.6,1.3,1.3,1.3h10.7h3.4c-0.5,0.5-0.9,0.9-1.5,1.4c1.4,1,2.8,2,4.2,3.1c2.8,2.1,5.4,4.1,7.9,6.1l3.7,2.9
			c1.6,1.2,3,2.4,4.4,3.5c4-4.3,7.1-9.4,9.2-15c1.2-3.1,1.9-6.5,2.4-9.9c0.2-1.8,0.3-3.6,0.3-5.4v-2.1L4134.4,72.4z"/>
	</g>
</g>
<g>
	<path fill="#F2E800" d="M3801.1-9.2c-4.8-3.6-9.4-6.9-13.7-9.8c-3.9-2.5-8.9-5.8-13.6-8c-2-0.9-3.9-1.8-5.6-2.2
		c-0.9-0.2-1.7-0.4-2.1-0.4l-0.6,0c-0.1,0-0.1,0-0.2,0V1.6c0,0.7,0.6,1.3,1.3,1.3h42.9c2.2,0,4.2-0.3,6.3-0.8l-2.1-1.7
		C3809.7-2.7,3805.5-5.9,3801.1-9.2z"/>
	<path fill="#8C7BFA" d="M3784.3-78.5l3.6,1.3c0.9,0.4,1.8,0.7,2.6,1.1l0.9,0.4c2.3,1,4.2,2.1,6.1,3.1c0,0,0.2,0.1,0.2,0.1
		c6.7,3.8,13,8.4,19.9,14.4c3.7,3.3,7.4,6.9,11.1,10.8c2.1-3.9,3.2-8.2,3.2-12.5c0-14.7-12.4-27.2-27-27.2h-38.4
		c-0.7,0-1.3,0.6-1.3,1.3v3.7h0.5C3772.1-81.6,3777.9-80.6,3784.3-78.5z"/>
	<path fill="#FF3E54" d="M3836.3-24c0-7.5-3.5-14.9-9.4-20.1c0.7-1,1.3-1.9,1.8-3c-3.7-4-7.4-7.6-11.1-10.8
		c-6.8-6-13.1-10.6-19.9-14.4c0,0-0.2-0.1-0.2-0.1c-1.9-1.1-3.9-2.1-6.1-3.1l-0.9-0.4c-0.8-0.4-1.7-0.8-2.6-1.1l-3.6-1.3
		c-6.4-2.1-12.1-3.1-18.4-3.2h-0.5v52c0.1,0,0.1,0,0.2,0l0.6,0c0.4,0,1.2,0.2,2.1,0.4c1.6,0.5,3.6,1.3,5.6,2.2
		c4.6,2.2,9.7,5.4,13.6,8c4.3,2.9,8.9,6.2,13.7,9.8c4.4,3.3,8.7,6.6,12.6,9.7l2.1,1.7C3827.4-0.8,3836.3-11.6,3836.3-24z
		 M3790.8-65.1h9.7c3.4,0,6.2,2.8,6.2,6.2s-2.8,6.2-6.2,6.2h-9.7V-65.1z M3802.1-18.6h-11.3V-31h11.3c3.3,0,6.2,2.9,6.2,6.2
		C3808.3-21.3,3805.5-18.6,3802.1-18.6z"/>
	<path fill="#8C7BFA" d="M3871-57.9c4.4-3.9,8.6-7.2,12.9-10.1c1.5-1.9,2.8-3.6,3.9-5c0.9-1.1,1.5-2,2-2.7l0.6-0.9
		c0.7-1,0.6-2.3,0-3.2l-4.9-6.3c-0.7-1-2-1.3-3.1-0.8l-1.2,0.5c-1.1,0.5-2.1,1-3.2,1.6c-3.6,1.9-7.1,4.1-10.6,6.7
		c-2.4,1.7-4.5,3.5-6.6,5.3c-2.6,2.4-4.9,4.6-6.9,6.9c-2.8,3.1-4.9,6.1-6.7,9.2c0,0,0,0.1,0,0.1c-0.5,0.9-1,1.8-1.4,2.9l-0.2,0.4
		c-0.2,0.4-0.4,0.8-0.5,1.2l-0.6,1.7c-1,3-1.4,5.6-1.5,8.5v0.6c0,0,0,0.1,0,0.2l0.1,1.1c0,0.1,0,0.2,0,0.4l0.3,1.9
		c0.1,0.4,0.1,0.9,0.2,1.2c0,0,0,0.1,0,0.1l0.4,1.4c0.1,0.5,0.3,1,0.5,1.4l0.6,1.6c0.2,0.4,0.3,0.8,0.5,1.2l0.2,0.4
		c0,0,0,0.1,0.1,0.2c3.4-4.6,6.8-8.8,10.5-13C3861.2-48.6,3866-53.5,3871-57.9z"/>
	<path fill="#F2E800" d="M3875.8-0.3c0.7,0.4,1.3,0.8,2,1.1c1.1,0.6,2.2,1.1,3.2,1.6l1.2,0.5c0.4,0.1,0.7,0.2,1.1,0.2
		c0.8,0,1.6-0.4,2.1-1l4.9-6.4c0.7-0.9,0.7-2.2,0.1-3.1l-0.7-1c-0.3-0.4-0.7-1-1.3-1.7c-0.3,0.2-0.6,0.5-0.9,0.6
		C3883.4-6.2,3879.5-3.1,3875.8-0.3z"/>
	<path fill="#FF3E54" d="M3882.9-17.1l-2.1-2.7c-1.4-1.8-3-3.8-4.5-5.8c-1.7-2.2-3.2-4.3-4.5-6.3c-1.2-1.8-2.7-4.1-3.7-6.3
		c-0.4-0.9-0.8-1.8-1.1-2.7c0-0.1,0-0.3-0.1-0.4v0c0-0.1,0-0.2,0-0.2v-0.3c0-0.2,0.1-0.6,0.2-1c0.2-0.7,0.6-1.7,1-2.6
		c1-2.1,2.5-4.5,3.7-6.3c1.3-2,2.9-4.1,4.6-6.4c1.5-2.1,3-4,4.5-5.8l2.1-2.7c0.4-0.5,0.7-0.9,1-1.3c-4.2,2.9-8.5,6.2-12.9,10.1
		c-5,4.4-9.8,9.3-14.9,14.9c-3.6,4.1-7.1,8.4-10.5,13c0.5,1,0.9,1.8,1.4,2.8c1.8,3.1,3.9,6,6.7,9.2c2,2.3,4.3,4.6,6.9,6.9
		c2.1,1.8,4.2,3.6,6.6,5.3c2.8,2.1,5.7,3.9,8.6,5.6c3.7-2.9,7.6-5.9,11.7-9c0.3-0.2,0.6-0.5,0.9-0.6c-0.2-0.3-0.5-0.6-0.7-0.9
		C3886.5-12.5,3884.8-14.6,3882.9-17.1z"/>
	<path fill="#8C7BFA" d="M3978.1-63.9l2.1-2.7c1.9-2.5,3.6-4.7,4.9-6.3c0.9-1.1,1.5-2,2-2.7l0.6-0.9c0.7-1,0.6-2.3,0-3.2l-4.9-6.3
		c-0.7-1-2-1.3-3.1-0.8l-1.2,0.5c-1.1,0.5-2.1,1-3.2,1.6c-3.6,1.9-7.1,4.1-10.6,6.7c-2.4,1.7-4.5,3.5-6.6,5.3
		c-0.6,0.5-1.1,1-1.7,1.5c5.9,3.5,11.4,7.7,17.4,12.9C3975.2-60.3,3976.7-62.2,3978.1-63.9z"/>
	<path fill="#8C7BFA" d="M3900.8-77.1l3.4-1.2c1-0.4,2-0.6,3.1-1l3-0.8c0.1,0,0.2,0,0.3-0.1c0.9-0.2,1.8-0.4,2.7-0.5l2.9-0.4
		c-2-1.2-4-2.4-5.9-3.5c-1.1-0.6-2.2-1.1-3.2-1.6l-1.2-0.5c-1.1-0.5-2.4-0.2-3.1,0.8l-4.9,6.3c-0.7,0.9-0.7,2.2,0,3.2l0.4,0.6l0,0
		C3899-76.4,3899.8-76.8,3900.8-77.1z"/>
	<path fill="#F2E800" d="M3924.8-29.3c-0.9-0.2-1.7-0.4-2.1-0.4l-0.6,0c-0.2,0-0.4,0.1-0.6,0.1h0c-0.2,0.1-0.6,0.1-0.9,0.2
		c-1.8,0.6-3.8,1.3-5.8,2.3c-1,0.5-2.1,1.1-3.1,1.6c-1.5,2-3,3.9-4.3,5.6l-2.1,2.7c-1.9,2.5-3.6,4.7-4.9,6.3c-0.9,1.1-1.5,2-2,2.6
		l-0.7,1c-0.6,1-0.6,2.2,0.1,3.1l4.9,6.4c0.5,0.6,1.3,1,2.1,1c0.4,0,0.7-0.1,1.1-0.2l1.2-0.5c1.1-0.5,2.2-1.1,3.2-1.6
		c3.6-1.9,7.1-4.1,10.6-6.7c2.4-1.7,4.5-3.5,6.6-5.3c2.6-2.4,4.9-4.6,6.9-6.9c1.4-1.6,2.7-3.2,3.8-4.7c-2.6-1.6-5.3-3.1-7.8-4.3
		C3928.4-28,3926.4-28.8,3924.8-29.3z"/>
	<path fill="#FF3E54" d="M3942.6-30.2l0.1-0.3l0.1,0.3c0.5,1.1,1,2,1.5,3c1.8,3.1,3.9,6,6.7,9.2c2,2.3,4.3,4.6,6.9,6.9
		c2.1,1.8,4.2,3.6,6.6,5.3c3.5,2.5,7.1,4.8,10.6,6.7c1.1,0.6,2.2,1.1,3.2,1.6l1.2,0.5c0.4,0.1,0.7,0.2,1.1,0.2c0.8,0,1.6-0.4,2.1-1
		l4.9-6.4c0.7-0.9,0.7-2.2,0.1-3.1l-0.7-1c-0.5-0.6-1.1-1.5-2-2.6c-1.2-1.7-3-3.8-4.9-6.3l-2.1-2.7c-1.4-1.8-3-3.8-4.5-5.8
		c-1.7-2.2-3.2-4.3-4.5-6.3c-1.2-1.8-2.7-4.1-3.7-6.3c-0.4-0.9-0.8-1.8-1.1-2.7c0-0.1,0-0.3-0.1-0.4v0c0-0.1,0-0.2,0-0.2V-42
		c0-0.2,0.1-0.6,0.2-1c0.2-0.7,0.6-1.7,1-2.6c1-2.1,2.5-4.5,3.7-6.3c1.3-2,2.9-4.1,4.6-6.4c0,0,0.1-0.1,0.1-0.2
		c-5.9-5.2-11.5-9.4-17.4-12.9c-1.9,1.8-3.6,3.6-5.3,5.3c-2.8,3.1-4.9,6.1-6.7,9.2c0,0,0,0.1,0,0.1c-0.5,0.9-1,1.8-1.4,2.9l-0.1,0.4
		l-0.1-0.4c-0.5-1.1-1-2-1.4-2.9c0,0,0-0.1,0-0.1c-1.8-3.1-3.9-6-6.7-9.2c-2-2.3-4.3-4.6-6.9-6.9c-2.1-1.8-4.2-3.6-6.6-5.3
		c-1.6-1.2-3.1-2.2-4.7-3.2l-2.9,0.4c-0.9,0.1-1.8,0.3-2.7,0.5c-0.1,0-0.2,0-0.3,0.1l-3,0.8c-1.1,0.3-2.1,0.6-3.1,1l-3.4,1.2
		c-0.9,0.4-1.8,0.7-2.6,1.2l0,0l0.3,0.4c0.5,0.6,1.2,1.5,2,2.7c1.2,1.7,3,3.8,4.9,6.3l2.1,2.7c1.4,1.8,3,3.8,4.5,5.8
		c1.7,2.2,3.2,4.3,4.6,6.4c1.2,1.8,2.7,4.1,3.7,6.3c0.4,0.9,0.8,1.8,1,2.6c0.1,0.4,0.2,0.7,0.2,1v0.3c0,0.1,0,0.2,0,0.2v0
		c0,0.1,0,0.3-0.1,0.4c-0.3,0.8-0.6,1.8-1.1,2.7c-1,2.2-2.5,4.5-3.7,6.3c-1.3,2-2.9,4.1-4.5,6.3c0,0.1-0.1,0.1-0.2,0.2
		c1.1-0.6,2.1-1.1,3.1-1.6c2-0.9,3.9-1.8,5.8-2.3c0.3,0,0.6-0.1,0.9-0.2h0c0.2,0,0.4-0.1,0.6-0.1l0.6,0c0.4,0,1.2,0.2,2.1,0.4
		c1.6,0.5,3.6,1.3,5.6,2.2c2.6,1.2,5.3,2.8,7.8,4.3c1.1-1.5,2-3,2.9-4.5C3941.6-28.2,3942.1-29.1,3942.6-30.2z"/>
	<path fill="#8C7BFA" d="M4027.5-57.9c2.2-1.9,4.3-3.7,6.4-5.3c-0.7-0.8-1.4-1.7-2.2-2.6c-2-2.3-4.3-4.6-6.9-6.9
		c-2.1-1.8-4.2-3.6-6.6-5.3c-3.5-2.5-7.1-4.8-10.6-6.7c-1.1-0.6-2.2-1.1-3.2-1.6l-1.2-0.5c-1.1-0.5-2.4-0.2-3.1,0.8l-4.9,6.3
		c-0.7,0.9-0.7,2.2,0,3.2l0.6,0.9c0.5,0.6,1.2,1.5,2,2.7c1.2,1.7,3,3.8,4.9,6.3l2.1,2.7c1.4,1.8,3,3.8,4.5,5.8
		c1.7,2.2,3.2,4.3,4.6,6.4c0.9,1.3,1.9,2.9,2.8,4.5C4020.3-51.2,4023.8-54.7,4027.5-57.9z"/>
	<path fill="#FF3E54" d="M4018.5-42.9c0.1,0.4,0.2,0.7,0.2,1v0.3c0,0.1,0,0.2,0,0.2v0c0,0.1,0,0.3-0.1,0.4c-0.3,0.8-0.6,1.8-1.1,2.7
		c-1,2.2-2.5,4.5-3.7,6.3c-1.3,2-2.9,4.1-4.5,6.3c-1.6,2.1-3,4-4.5,5.8l-2.1,2.7c-1.9,2.5-3.6,4.7-4.9,6.3c-0.9,1.1-1.5,2-2,2.6
		l-0.7,1c-0.6,1-0.6,2.2,0.1,3.1l4.9,6.4c0.5,0.6,1.3,1,2.1,1c0.4,0,0.7-0.1,1.1-0.2l1.2-0.5c1.1-0.5,2.2-1.1,3.2-1.6
		c3.6-1.9,7.1-4.1,10.6-6.7c2.4-1.7,4.5-3.5,6.6-5.3c2.6-2.4,4.9-4.6,6.9-6.9c2.8-3.1,4.9-6.1,6.7-9.2c0.6-1,1.1-1.9,1.5-3l0.2-0.4
		c0.2-0.4,0.4-0.8,0.5-1.2l0.6-1.6c0.2-0.5,0.3-0.9,0.5-1.4l0.4-1.4c0,0,0-0.1,0-0.1c0.1-0.4,0.2-0.8,0.2-1.2l0.3-1.9
		c0-0.2,0-0.3,0-0.4l0.1-1.1c0,0,0-0.1,0-0.2v-0.6c0-2.9-0.5-5.6-1.5-8.5l-0.6-1.7c-0.2-0.4-0.3-0.8-0.5-1.2l-0.2-0.4
		c-0.5-1.1-1-2-1.4-2.9c0,0,0-0.1,0-0.1c-1.3-2.3-2.8-4.4-4.5-6.6c-2.1,1.7-4.2,3.4-6.4,5.3c-3.6,3.2-7.3,6.7-10.9,10.7
		c0.3,0.6,0.6,1.2,0.9,1.8C4017.9-44.6,4018.3-43.6,4018.5-42.9z"/>
	<path fill="#F2E800" d="M4119.3-5.3v6.9c0,0.7,0.6,1.3,1.3,1.3h9.2l-3.1-2.4C4124.4-1.4,4121.9-3.3,4119.3-5.3z"/>
	<path fill="#8C7BFA" d="M4054.6-76c0.8-0.4,1.7-0.8,2.6-1.2l3.4-1.2c1-0.4,2-0.6,3.1-1l3-0.8c0.1,0,0.2,0,0.3-0.1
		c0.8-0.2,1.7-0.3,2.5-0.5l-6.2-5.6c-0.2-0.2-0.6-0.3-0.9-0.3h-10.3c-0.7,0-1.3,0.6-1.3,1.3v11.2c0.9-0.5,1.9-0.9,2.9-1.4L4054.6-76
		z"/>
	<path fill="#F2E800" d="M4057.7-19c-2.2,1.5-4.5,3.1-6.8,4.7V1.5c0,0.7,0.6,1.3,1.3,1.3h22.9c0.7,0,1.3-0.6,1.3-1.3v-30.7
		c-1.6,0.6-3.4,1.2-5.1,2.1C4066.7-24.9,4061.7-21.6,4057.7-19z"/>
	<path fill="#8C7BFA" d="M4144.9-43.7v-41.6c0-0.7-0.6-1.3-1.3-1.3h-10.3c-0.3,0-0.6,0.1-0.9,0.3l-17.8,16.2
		c5.4,3.4,10.6,7.3,16.1,12.2C4135.5-53.7,4140.1-49,4144.9-43.7z"/>
	<path fill="#FF3E54" d="M4144.9,1.5v-45.2c-4.8-5.3-9.5-10-14.2-14.2c-5.5-4.9-10.7-8.9-16.1-12.2l-16.6,15.2l-28.4-25.8
		c-0.8,0.1-1.7,0.3-2.5,0.5c-0.1,0-0.2,0-0.3,0.1l-3,0.8c-1.1,0.3-2.1,0.6-3.1,1l-3.4,1.2c-0.9,0.4-1.8,0.7-2.6,1.2l-0.9,0.4
		c-1,0.5-2,0.9-2.9,1.4v59.9c2.4-1.7,4.7-3.3,6.8-4.7c3.9-2.6,9-5.8,13.6-8c1.7-0.8,3.5-1.5,5.1-2.1v-10.8l20.6,18.6
		c0.5,0.5,1.3,0.5,1.8,0l20.5-18.7v34.8c2.6,2,5,3.9,7.4,5.8l3.1,2.4h13.7C4144.3,2.9,4144.9,2.3,4144.9,1.5z"/>
</g>
</svg>
